<?xml version="1.0" encoding="UTF-8"?>
<!-- Generated by Pixelmator Pro 2.4.1 -->
<svg width="820" height="720" viewBox="0 0 820 720" xmlns="http://www.w3.org/2000/svg" xmlns:xlink="http://www.w3.org/1999/xlink">
    <g id="Group">
        <path id="Shape" fill="#00aebd" fill-rule="evenodd" stroke="none" d="M 316 518.080322 C 139.54686 517.410706 136.194458 517.328491 127.5 515.318848 C 122.550003 514.174683 114.899994 512.045532 110.5 510.58725 C 106.100006 509.128998 97.550003 505.474426 91.5 502.466003 C 85.449997 499.45755 76.234116 493.959473 71.020264 490.248047 C 65.806404 486.536621 57.612534 479.593292 52.811661 474.81842 C 48.01078 470.043549 41.1511 462.172089 37.567909 457.326263 C 33.984726 452.480408 28.58226 443.760254 25.562439 437.94812 C 22.542614 432.135986 18.508354 422.682465 16.597416 416.940308 C 14.686478 411.198151 12.307812 402.225006 11.311493 397 C 10.006424 390.155823 9.5 382.747437 9.5 370.5 C 9.5 359.113434 10.060009 350.197968 11.195965 343.5 C 12.128746 338 14.066822 329.450012 15.502808 324.5 C 16.938793 319.549988 19.853493 311.544769 21.979923 306.710632 C 24.106354 301.876465 28.890198 293.326477 32.610687 287.710632 C 36.6455 281.620361 43.034264 273.868164 48.442726 268.5 C 53.429855 263.549988 61.668091 256.664368 66.749916 253.198608 C 71.831734 249.732849 81.054436 244.452209 87.244797 241.463867 C 93.435165 238.475464 103 234.584229 108.5 232.81665 L 118.5 229.602844 L 118.120499 211.551453 C 117.898483 200.990662 118.251556 189.142883 118.971375 183 C 119.648087 177.224976 121.719131 166.534363 123.573685 159.243103 C 125.428238 151.951782 128.979187 140.785278 131.464676 134.428589 C 133.95018 128.07196 138.475739 117.999329 141.521484 112.044922 C 144.56723 106.090515 150.158646 96.557007 153.946854 90.859375 C 157.735062 85.161743 163.740463 76.900024 167.292206 72.5 C 170.843948 68.099976 178.881592 59.549988 185.153641 53.5 C 191.42569 47.450012 200.819458 39.459412 206.028687 35.743164 C 211.2379 32.026855 221.799988 25.852173 229.5 22.021545 C 237.200012 18.190918 248.973206 13.254578 255.662659 11.05188 C 262.352112 8.849182 273.377106 5.925537 280.162659 4.554932 C 286.948181 3.184387 297.899994 1.55365 304.5 0.931152 C 311.530365 0.268066 321.676697 0.079224 329 0.47522 C 335.875 0.846924 346.450012 1.998596 352.5 3.034485 C 358.549988 4.070313 368.261017 6.26355 374.080078 7.908264 C 379.899109 9.552979 389.973755 13.150513 396.468201 15.902771 C 402.962616 18.655029 413.102905 23.669556 419.002167 27.046143 C 424.901398 30.422729 434.62674 36.821289 440.614014 41.265076 C 446.601318 45.708923 456.612976 54.329712 462.862183 60.422363 C 469.111389 66.515076 477.119019 75.099976 480.656921 79.5 C 484.194824 83.900024 489.956177 91.775024 493.459961 97 C 496.963745 102.224976 502.335327 111.224976 505.396729 117 C 508.458191 122.775024 512.771118 131.775024 514.981018 137 C 517.190979 142.224976 519.684753 148.19812 520.522827 150.273621 C 522.04657 154.04718 522.04657 154.04718 529.773254 146.143433 C 534.022949 141.796387 540.970764 135.984375 545.21283 133.227844 C 549.454895 130.471375 556.789001 126.818115 561.510803 125.109558 C 566.232666 123.401001 573.222046 121.486816 577.042847 120.855835 C 581.069641 120.190857 588.090149 119.955322 593.744812 120.295593 C 599.110168 120.618469 606.797913 121.820435 610.828613 122.966614 C 614.859375 124.112793 620.934387 126.442261 624.328613 128.143188 C 627.7229 129.844116 633.200012 133.168152 636.5 135.529846 C 639.799988 137.891602 644.810364 142.226013 647.634216 145.161987 C 650.458008 148.0979 654.756836 153.241516 657.187134 156.592346 C 659.617432 159.943115 663.275391 166.063538 665.315979 170.193298 C 667.356506 174.323059 670.3703 181.678772 672.013306 186.539368 C 673.65625 191.399902 675.900391 200.039795 677.000244 205.739136 C 678.100098 211.438477 679 218.49823 679 221.42749 C 679 226.753479 679 226.753479 688.75 229.003967 C 694.112488 230.241699 703.599243 233.011536 709.831604 235.159058 C 716.064026 237.30658 725.53302 241.256531 730.87384 243.936646 C 736.2146 246.616821 744.729431 251.582214 749.795593 254.970947 C 754.861694 258.359619 762.853516 264.773438 767.555054 269.223877 C 772.256653 273.674316 779.014832 281.182068 782.573242 285.907776 C 786.131714 290.633484 791.322327 299.070831 794.107971 304.65741 C 796.893677 310.243988 800.461975 318.926788 802.037659 323.952515 C 803.613281 328.978241 805.711914 337.9021 806.701233 343.783295 C 808.006104 351.540375 808.5 359.833832 808.5 373.98822 C 808.5 390.28476 808.124817 395.379089 806.223267 404.90329 C 804.971069 411.175079 802.810608 419.725098 801.42218 423.90329 C 800.033813 428.081482 796.937988 435.549988 794.542603 440.5 C 792.147217 445.450012 787.370605 453.455658 783.927795 458.290314 C 780.485046 463.125 773.51123 471.054779 768.430481 475.912079 C 763.34967 480.769348 755.211792 487.406158 750.346313 490.660553 C 745.480835 493.914948 737.224976 498.661011 732 501.207397 C 726.775024 503.753784 717.846375 507.447968 712.158569 509.416718 C 706.470764 511.385468 697.470764 513.980103 692.158569 515.182495 C 682.805908 517.2995 680.023621 517.386597 604.30719 517.934326 L 526.114441 518.5 L 494.598389 547.794312 C 477.264526 563.906128 449.097656 590.101257 432.005249 606.005676 C 414.912842 621.910095 382.197906 652.377686 359.305359 673.711365 C 336.412842 695.045105 317.303986 712.650024 316.841278 712.833313 C 316.378571 713.016663 316 669.272217 316 615.623535 L 316 518.080322 Z"/>
        <path id="path1" fill="#21303c" fill-rule="evenodd" stroke="none" d="M 422.183197 358.663483 C 443.883423 358.517578 447.788452 358.922119 452.487091 360.461456 C 455.779999 361.540283 461.368195 364.363586 464.905304 366.735474 C 471.336426 371.048004 471.336426 371.048004 475.989685 367.774017 C 478.54895 365.973297 493.660767 355.327026 509.571472 344.115601 C 525.482178 332.904175 539.280396 322.998779 540.234192 322.103638 L 541.968384 320.476074 L 540.234192 315.053131 C 539.143311 311.641968 538.5 306.439362 538.5 301.02887 C 538.5 295.491058 539.156982 290.303406 540.344604 286.463745 C 541.359131 283.183716 543.352722 278.481567 544.774719 276.014648 C 546.196716 273.547668 549.416626 269.316772 551.930115 266.612671 C 554.443542 263.908508 558.801025 260.214966 561.613403 258.404663 C 564.425842 256.594421 569.60083 254.135254 573.113403 252.939941 C 577.806519 251.342834 581.886414 250.766541 588.5 250.766541 C 595.095154 250.766541 599.236816 251.349304 604 252.947449 C 607.575012 254.146912 612.75 256.614685 615.5 258.431458 C 618.25 260.248169 622.665894 263.931824 625.31311 266.61731 C 628.007996 269.351135 631.604919 274.58075 633.486084 278.5 C 635.333923 282.349976 637.393188 288.333435 638.062195 291.79657 C 638.787598 295.551849 639.018677 300.889465 638.634644 305.021515 C 638.280457 308.832092 637.025635 314.548615 635.84613 317.724915 C 634.666626 320.901215 632.269653 325.752533 630.519592 328.505585 C 628.76947 331.258667 624.973328 335.63681 622.08374 338.234772 C 619.194214 340.832764 614.055725 344.316559 610.664978 345.976563 C 607.274231 347.636566 601.929138 349.50473 598.786987 350.127991 C 595.644836 350.751282 589.569824 351.040741 585.286987 350.77121 C 581.00415 350.501709 574.799988 349.31839 571.5 348.141632 C 568.200012 346.964844 562.87323 344.197235 559.662781 341.991364 C 553.8255 337.980682 553.8255 337.980682 519.662781 362.114258 C 500.87323 375.387726 484.927124 386.781036 484.226929 387.432709 C 483.198608 388.389771 483.260437 389.471619 484.548279 393.058807 C 485.425232 395.501465 486.396545 400.709015 486.706726 404.631134 C 487.089417 409.470276 486.746704 414.082642 485.64032 418.981842 C 484.743591 422.952637 482.554504 428.932037 480.775696 432.269409 C 478.996887 435.606812 475.445862 440.488953 472.88446 443.118591 C 470.32309 445.74826 466.038757 449.288513 463.363708 450.985779 C 460.68866 452.683075 455.634247 454.957397 452.131653 456.039886 C 448.629089 457.122375 442.779083 458.222809 439.131653 458.485321 C 435.16626 458.770721 429.910309 458.376617 426.058807 457.505096 C 422.516144 456.703491 417.228729 454.878845 414.309052 453.450378 C 411.389343 452.021881 406.460815 448.532013 403.356781 445.695099 C 400.252716 442.858185 396.215576 438.278717 394.385284 435.518524 C 392.555023 432.758331 390.139923 427.828491 389.018402 424.563324 C 387.896881 421.298126 386.716919 415.673126 386.39624 412.063324 C 386.019135 407.817932 386.358063 402.934296 387.355927 398.235077 C 388.204407 394.23938 390.361694 388.225128 392.149902 384.870117 C 393.93811 381.515106 397.379913 376.569244 399.79837 373.879364 C 404.195526 368.988647 404.195526 368.988647 384.155029 330.748993 C 364.114532 292.509369 364.114532 292.509369 360.807281 293.004669 C 358.988281 293.2771 353.674988 293.487823 349 293.472931 C 343.391968 293.455048 338.463013 292.787689 334.512909 291.511444 C 331.220001 290.447571 325.595001 287.610474 322.012909 285.206848 C 317.027649 281.861694 315.124634 281.070374 313.899719 281.833252 C 313.019562 282.381409 297.494568 293.279724 279.399719 306.051666 C 261.304871 318.823608 246.104004 329.630371 245.619995 330.066681 C 245.120453 330.517029 245.496765 333.65567 246.490448 337.326691 C 247.80957 342.199829 248.126648 346.221466 247.777252 353.646698 C 247.45282 360.540771 246.647095 365.21933 245.094391 369.224762 C 243.87381 372.373383 240.878815 377.661438 238.438782 380.975952 C 235.998749 384.290497 231.290497 388.998749 227.975952 391.438782 C 224.661438 393.878815 219.373383 396.876068 216.224762 398.099335 C 212.108292 399.698639 207.611023 400.450745 200.216583 400.776398 C 191.525177 401.15921 188.869812 400.88739 183.064514 399.020752 C 179.286758 397.80603 173.462875 395.026459 170.122574 392.843872 C 166.782257 390.661316 162.267517 386.791107 160.089813 384.243408 C 157.912109 381.695709 154.897186 377.17395 153.389999 374.195068 C 151.882813 371.216156 150.053497 366.48056 149.324829 363.671509 C 148.596176 360.862457 148 355.160278 148 351 C 148 346.839722 148.596176 341.137543 149.324829 338.328491 C 150.053497 335.51944 151.965988 330.611938 153.574829 327.422943 C 155.18367 324.233917 159.240067 318.881592 162.589035 315.5289 C 166.353409 311.760315 171.218628 308.182343 175.332596 306.157043 C 178.992584 304.355225 184.62561 302.39035 187.850418 301.790619 C 191.075241 301.190918 197.490646 300.944702 202.106873 301.24353 C 207.253952 301.576691 212.627121 302.63382 216 303.976868 C 219.024994 305.181366 224.028259 307.892365 227.118347 310.001312 C 232.736694 313.835693 232.736694 313.835693 265.118347 290.952393 C 282.928253 278.366577 298.821228 267.015564 300.436035 265.727905 C 303.37207 263.386719 303.37207 263.386719 301.686035 257.377747 C 300.745667 254.026367 300 247.829407 300 243.365906 C 300 238.919678 300.716187 232.949097 301.611511 229.931519 C 302.497864 226.944153 304.258728 222.454712 305.524536 219.954895 C 306.790344 217.455078 310.000153 212.991638 312.65741 210.036133 C 315.314667 207.080627 319.741333 203.225464 322.494415 201.469116 C 325.247467 199.712769 330.424988 197.201233 334 195.887878 C 339.154175 193.994446 342.46698 193.5 350 193.5 C 357.53302 193.5 360.845825 193.994446 366 195.887878 C 369.575012 197.201233 374.752533 199.712769 377.505585 201.469116 C 380.258667 203.225464 384.685333 207.080627 387.34259 210.036133 C 389.999847 212.991638 393.209656 217.455078 394.475464 219.954895 C 395.741272 222.454712 397.502136 226.944153 398.388489 229.931519 C 399.293457 232.981689 400 238.930481 400 243.5 C 400 248.069519 399.293457 254.018311 398.388489 257.068481 C 397.502136 260.055847 395.656403 264.712769 394.286835 267.417297 C 392.917267 270.121826 389.62265 274.633423 386.965454 277.442993 C 382.134155 282.551392 382.134155 282.551392 402.158661 320.607422 L 422.183197 358.663483 Z M 436.068512 437.914063 C 438.581177 437.961334 442.924957 437.320557 445.721344 436.490112 C 448.979248 435.522614 452.654602 433.317871 455.952637 430.352692 C 458.783447 427.807526 462.054871 423.874481 463.222443 421.612579 C 464.690063 418.769409 465.477173 415.03067 465.772522 409.5 C 466.17511 401.961182 466.005798 401.127075 462.835205 395.030853 C 460.515137 390.570007 457.970947 387.428253 454.639709 384.910522 C 451.982697 382.902344 448.112091 380.750946 446.038361 380.129639 C 443.964661 379.508331 439.395172 379.004395 435.883972 379.009766 C 431.176758 379.016968 428.079773 379.680664 424.092743 381.536621 C 421.118774 382.921021 417.165588 385.665283 415.307892 387.63501 C 413.450226 389.604736 410.978546 393.080139 409.815308 395.358154 C 408.560333 397.815857 407.507202 402.190308 407.225372 406.116241 C 406.89389 410.733887 407.257507 414.259247 408.429169 417.786743 C 409.352478 420.56662 411.938446 424.920624 414.175751 427.462341 C 416.413055 430.004028 420.101257 433.032684 422.371796 434.192627 C 424.642303 435.3526 427.625 436.645111 429 437.06488 C 430.375 437.48465 433.555817 437.86676 436.068512 437.914063 Z M 200.222076 380.474365 C 203.369202 380.233551 208.075226 379.03479 210.679871 377.810455 C 213.284531 376.586121 217.028595 373.971405 219 372 C 220.971405 370.028595 223.661346 366.184601 224.9776 363.457794 C 226.84848 359.582092 227.37085 356.863037 227.37085 351 C 227.37085 345.258789 226.841064 342.404266 225.111725 338.827545 C 223.869232 336.25769 221.228241 332.482483 219.242889 330.438232 C 217.257538 328.393982 213.128204 325.555634 210.066574 324.130829 C 205.874725 322.179993 202.89476 321.540222 198 321.540222 C 193.108948 321.540222 190.138596 322.177185 186 324.113464 C 182.975006 325.528717 178.657608 328.696075 176.405792 331.151978 C 174.153961 333.60791 171.453964 337.840912 170.405792 340.558655 C 169.265976 343.513947 168.514709 347.91156 168.536575 351.5 C 168.562668 355.779205 169.311417 359.096497 171.147278 363.066589 C 172.563049 366.128204 175.390839 370.254486 177.431259 372.236115 C 179.471664 374.217743 182.79686 376.627655 184.820557 377.591522 C 186.844254 378.555359 189.850006 379.696808 191.5 380.128082 C 193.149994 380.559357 197.074936 380.715179 200.222076 380.474365 Z M 593.338806 329.832916 C 596.000122 329.425659 600.142822 328.141083 602.544861 326.978302 C 604.946838 325.815521 608.341064 323.236633 610.087585 321.247467 C 611.834106 319.258301 614.324463 315.351349 615.621765 312.565399 C 617.278687 309.007111 617.983398 305.693451 617.990234 301.428131 C 617.995605 298.088623 617.283569 293.253723 616.407959 290.68396 C 615.532349 288.114136 612.879761 283.858154 610.513367 281.226074 C 608.081116 278.520874 603.918152 275.36676 600.936584 273.970337 C 596.86676 272.064087 594.026917 271.5 588.5 271.5 C 582.973083 271.5 580.13324 272.064087 576.063416 273.970337 C 573.072571 275.371155 568.917114 278.522827 566.465088 281.250061 C 563.999939 283.991943 561.41217 288.253723 560.445679 291.163513 C 559.249878 294.763672 558.891968 298.246277 559.230896 302.983337 C 559.577637 307.828979 560.508057 311.162811 562.572083 314.955139 C 564.145447 317.845917 567.005432 321.507446 568.927551 323.091827 C 570.849731 324.676239 573.951172 326.698029 575.819763 327.584717 C 577.688293 328.471375 581.305725 329.506561 583.858521 329.885101 C 586.411316 330.263672 590.677429 330.240173 593.338806 329.832916 Z M 349.571869 272.921082 C 352.911377 272.964478 357.723938 272.291199 360.266388 271.424927 C 362.808868 270.558594 366.913757 268.067566 369.388367 265.889343 C 371.882477 263.693909 375.114136 259.422119 376.639618 256.304199 C 378.763214 251.963684 379.4039 249.174988 379.44577 244.089722 C 379.479004 240.050476 378.812927 235.719849 377.724792 232.900513 C 376.748413 230.37085 374.407928 226.500061 372.523743 224.298767 C 370.639526 222.097473 366.606903 218.992249 363.562378 217.398193 C 358.823914 214.917297 356.897247 214.5 350.18222 214.5 C 343.927399 214.5 341.267517 215.001221 337.057404 216.973145 C 334.153259 218.333313 330.050323 221.408081 327.939697 223.805847 C 325.829102 226.203613 323.291718 230.265686 322.301117 232.832703 C 321.226257 235.617981 320.502197 240.121033 320.505463 244 C 320.509735 249.085083 321.120605 251.743958 323.311615 256.214417 C 324.882385 259.419373 328.096436 263.675354 330.630371 265.905823 C 333.115326 268.093201 337.027557 270.548645 339.324219 271.362488 C 341.620911 272.17627 346.23233 272.877625 349.571869 272.921082 Z"/>
    </g>
</svg>
