<?xml version="1.0" encoding="UTF-8"?>
<!-- Generated by Pixelmator Pro 2.4.1 -->
<svg width="415" height="422" viewBox="0 0 415 422" xmlns="http://www.w3.org/2000/svg" xmlns:xlink="http://www.w3.org/1999/xlink">
    <g id="Group">
        <path id="Ellipse" fill="#000000" fill-rule="evenodd" stroke="none" d="M 411 205.5 C 411 92.55777 319.44223 1 206.5 1 C 93.55777 1 2 92.55777 2 205.5 C 2 318.44223 93.55777 410 206.5 410 C 319.44223 410 411 318.44223 411 205.5 Z"/>
        <path id="Ellipse-copy" fill="#ffffff" fill-rule="evenodd" stroke="none" d="M 407.5 205 C 407.5 93.990753 317.509247 4 206.5 4 C 95.490768 4 5.5 93.990753 5.5 205 C 5.5 316.009216 95.490768 406 206.5 406 C 317.509247 406 407.5 316.009216 407.5 205 Z"/>
        <path id="Shape" fill="#000000" fill-rule="evenodd" stroke="none" d="M 192.5 131.761261 C 204.125 131.436096 209.507416 130.609741 211.960968 129.715149 C 214.41449 128.820526 216.62558 128.292236 216.874512 128.541168 C 217.123444 128.790131 217.057953 153.63269 216.728943 183.746887 C 216.265839 226.135025 216.398285 238.075333 217.315369 236.619522 C 217.966919 235.585251 220.340881 232.210251 222.590851 229.119522 C 224.84082 226.028778 228.816864 221.141006 231.426514 218.257797 C 234.036163 215.374588 240.070282 209.745148 244.835663 205.747925 C 249.601044 201.750717 257.243622 196.286194 261.819183 193.604523 C 268.813019 189.505585 270.909241 187.631134 274.977112 181.838684 C 277.638428 178.049103 281.060516 171.472626 282.581787 167.224274 C 284.103027 162.975922 285.460541 159.346405 285.59848 159.158691 C 285.73642 158.970978 286.834503 159.130096 288.038666 159.512268 C 289.911499 160.106689 290.144775 160.720337 289.65213 163.756226 C 289.335358 165.708221 287.27182 170.924347 285.066437 175.347656 C 282.861084 179.770966 281.192963 183.526306 281.359528 183.692841 C 281.526093 183.859406 284.949554 182.877655 288.967224 181.511139 C 292.984924 180.144653 299.473389 178.329102 303.386047 177.476593 C 307.298737 176.624115 317.839905 175.650635 326.810913 175.313354 C 343.121826 174.700073 343.121826 174.700073 342.810913 179.600037 C 342.5 184.5 342.5 184.5 338.5 184.227997 C 336.299988 184.0784 328.424988 184.450775 321 185.055542 C 309.901733 185.959473 305.276184 186.871094 295 190.179626 C 288.125 192.393097 278.158936 196.457672 272.85321 199.21199 C 267.547455 201.966309 259.40271 207.07457 254.753723 210.56369 C 250.104736 214.052795 243.745056 219.668304 240.621063 223.042587 C 237.49707 226.41687 232.721466 232.466949 230.008636 236.487198 C 227.295807 240.507446 223.146576 247.554977 220.788116 252.148361 C 216.5 260.5 216.5 260.5 215.86441 286.5 C 215.514832 300.799988 215.177338 330.612488 215.11441 352.75 L 215 393 L 222.484222 393 C 229.275116 393 230.259857 393.260376 233.114014 395.810547 C 235.482391 397.926727 236.448181 399.841492 237.022949 403.560547 C 237.5354 406.876282 237.373718 409.486176 236.531189 411.5 C 235.840851 413.149994 234.376099 415.300964 233.276184 416.279938 C 232.1763 417.258911 228.626678 418.493805 225.388184 419.024139 C 222.149689 419.554504 213.424988 419.919006 206 419.834167 C 198.575012 419.749329 190.924988 419.505341 189 419.291992 C 187.075012 419.078613 181.230896 418.232697 176.013123 417.41217 C 168.329712 416.203918 166.005371 415.421265 163.786255 413.295197 C 162.279236 411.85141 160.560608 409.198608 159.967041 407.400146 C 159.209747 405.10553 159.19812 402.977997 159.927979 400.267456 C 160.500061 398.142975 162.229065 395.196655 163.770233 393.720123 C 165.311401 392.243591 167.906067 390.786377 169.536163 390.481812 C 171.16629 390.177277 176.294159 390.61261 180.931488 391.449249 C 185.568817 392.285858 189.456665 392.864532 189.571167 392.735168 C 189.685669 392.605835 190.262024 346.597778 190.85199 290.495056 C 191.792603 201.045547 191.74176 187.866241 190.438812 183.421448 C 189.621582 180.633667 187.181274 174.888397 185.015869 170.654144 C 182.850464 166.419922 178.512421 159.545685 175.375793 155.378113 C 172.239166 151.21051 166.93396 145.516724 163.586426 142.725281 C 160.238892 139.933807 154.869644 135.982971 151.654755 133.945587 C 148.439865 131.908234 142.589859 128.974335 138.654755 127.425812 C 134.719635 125.877289 131.306854 124.467346 131.07077 124.292603 C 130.834702 124.117859 131.389465 122.406494 132.303589 120.489563 C 133.965622 117.004242 133.965622 117.004242 140.732803 119.544678 C 144.454758 120.941895 150.425003 123.831238 154 125.965393 C 157.575012 128.099579 163.649994 132.534851 167.5 135.821533 C 171.350006 139.108246 176.811707 144.655457 179.637115 148.148682 C 182.462524 151.641907 186.388977 157.186188 188.362549 160.46933 C 191.950897 166.438629 191.950897 166.438629 192.225433 149.099945 L 192.5 131.761261 Z"/>
        <path id="path1" fill="#000000" fill-rule="evenodd" stroke="none" d="M 280.01181 409.640198 C 278.080322 409.852509 275.149994 409.405121 273.5 408.646057 C 271.850006 407.886963 269.534302 405.937592 268.354004 404.314117 C 266.81958 402.203552 266.262115 400.099579 266.397827 396.931183 C 266.502228 394.494019 267.413239 391.253265 268.422272 389.729462 C 269.662567 387.856476 274.768616 384.70874 284.183411 380.013092 C 291.842987 376.192871 303.147675 369.582825 309.304932 365.324097 C 317.362183 359.751251 321.575104 357.467804 324.335724 357.177277 C 326.640503 356.934692 329.705475 357.465302 332.01474 358.506653 C 335.368134 360.018799 336.009033 360.869202 337.042694 365.177948 C 338.039154 369.331696 337.970062 370.789886 336.607697 374.357147 C 335.519165 377.207458 333.432434 379.774567 330.244019 382.18576 C 327.634827 384.158966 321.674988 388.24646 317 391.269135 C 312.325012 394.291779 302.88031 399.574982 296.01181 403.009552 C 289.143311 406.444092 281.943329 409.427917 280.01181 409.640198 Z"/>
        <path id="Shape-copy" fill="#000000" fill-rule="evenodd" stroke="none" d="M 119.180588 401.802917 C 121.0793 402.215942 124.040344 402.077332 125.760643 401.494873 C 127.480942 400.912415 129.987732 399.21579 131.331253 397.724579 C 133.077896 395.78595 133.852234 393.75177 134.048447 390.586548 C 134.199371 388.151855 133.632095 384.833588 132.787872 383.212677 C 131.750153 381.220306 127.001106 377.556061 118.128716 371.902039 C 110.910423 367.302124 100.358597 359.546631 94.680229 354.667603 C 87.249641 348.283081 83.298485 345.571777 80.583351 344.994263 C 78.316559 344.512085 75.212914 344.719421 72.807449 345.513672 C 69.314362 346.667053 68.588081 347.44577 67.109695 351.622864 C 65.684509 355.649719 65.6008 357.107117 66.582825 360.797272 C 67.367455 363.745728 69.174416 366.516907 72.09333 369.248169 C 74.481972 371.483276 79.981895 376.171387 84.315323 379.666168 C 88.648743 383.160919 97.489464 389.402405 103.961327 393.536102 C 110.433189 397.66983 117.281837 401.389862 119.180588 401.802917 Z"/>
        <path id="Shape-copy-2" fill="#000000" fill-rule="evenodd" stroke="none" d="M 35.538425 328.076172 C 36.650749 328.792969 38.596458 329.342987 39.862202 329.298401 C 41.127945 329.253845 43.20097 328.573822 44.46891 327.787231 C 46.117279 326.764648 47.164787 325.459106 48.144657 323.206055 C 48.89838 321.472992 49.42746 318.941162 49.320408 317.579834 C 49.188805 315.906494 47.116093 312.204926 42.922459 306.153931 C 39.510647 301.231079 34.801254 293.286621 32.457142 288.499634 C 29.389685 282.235504 27.574265 279.400513 25.980125 278.385071 C 24.649218 277.537231 22.593077 277.005737 20.828651 277.053406 C 18.266453 277.12265 17.588415 277.528015 15.509385 280.233398 C 13.505155 282.841492 13.058251 283.880341 12.696202 286.773071 C 12.406905 289.084351 12.824295 291.491669 13.969065 294.114349 C 14.905861 296.26059 17.186445 300.869873 19.036985 304.357208 C 20.887527 307.844513 24.902361 314.314697 27.958815 318.735352 C 31.015268 323.156006 34.426083 327.359375 35.538425 328.076172 Z"/>
        <path id="Shape-copy-3" fill="#000000" fill-rule="evenodd" stroke="none" d="M 390.935577 298.551392 C 390.930939 297.228119 390.332489 295.296753 389.605743 294.259491 C 388.878998 293.222229 387.179626 291.854004 385.829376 291.219055 C 384.073975 290.393555 382.408569 290.226074 379.985321 290.631378 C 378.121338 290.943146 375.709839 291.878357 374.626404 292.709595 C 373.294708 293.731323 371.319183 297.485657 368.528442 304.29834 C 366.257965 309.840912 362.160126 318.117371 359.422119 322.690491 C 355.839233 328.674774 354.450348 331.741364 354.466919 333.631378 C 354.480774 335.20932 355.154877 337.223236 356.155823 338.677032 C 357.609344 340.788177 358.318604 341.136047 361.719849 341.406219 C 364.998749 341.666626 366.113434 341.475647 368.736633 340.203796 C 370.832642 339.187561 372.624237 337.526428 374.200317 335.137939 C 375.490082 333.18335 378.113678 328.760284 380.030518 325.30896 C 381.947357 321.857635 385.187042 314.966583 387.229858 309.995575 C 389.272675 305.024536 390.940247 299.874695 390.935577 298.551392 Z"/>
        <g id="g1">
            <path id="path2" fill="#f5e037" fill-rule="evenodd" stroke="none" d="M 243.5 93.5 C 243.5 70.027893 224.472107 51 201 51 C 177.527893 51 158.5 70.027893 158.5 93.5 C 158.5 116.972107 177.527893 136 201 136 C 224.472107 136 243.5 116.972107 243.5 93.5 Z"/>
            <path id="Ellipse-copy-2" fill="#7ab736" fill-rule="evenodd" stroke="none" d="M 235.5 92.5 C 235.5 73.446167 220.053833 58 201 58 C 181.946182 58 166.5 73.446167 166.5 92.5 C 166.5 111.553833 181.946182 127 201 127 C 220.053833 127 235.5 111.553833 235.5 92.5 Z"/>
        </g>
        <g id="g2">
            <path id="Ellipse-copy-4" fill="#f5e037" fill-rule="evenodd" stroke="none" d="M 137.5 110.25 C 137.5 92.991089 123.508896 79 106.25 79 C 88.991104 79 75 92.991089 75 110.25 C 75 127.508911 88.991104 141.5 106.25 141.5 C 123.508896 141.5 137.5 127.508911 137.5 110.25 Z"/>
            <path id="Ellipse-copy-3" fill="#7ab736" fill-rule="evenodd" stroke="none" d="M 131.617645 109.514709 C 131.617645 95.504547 120.260162 84.147064 106.25 84.147064 C 92.239838 84.147064 80.882355 95.504547 80.882355 109.514709 C 80.882355 123.524872 92.239838 134.882355 106.25 134.882355 C 120.260162 134.882355 131.617645 123.524872 131.617645 109.514709 Z"/>
        </g>
        <g id="Group-copy">
            <path id="path3" fill="#f5e037" fill-rule="evenodd" stroke="none" d="M 108.5 175.25 C 108.5 164.066223 99.433762 155 88.25 155 C 77.066231 155 68 164.066223 68 175.25 C 68 186.433762 77.066231 195.5 88.25 195.5 C 99.433762 195.5 108.5 186.433762 108.5 175.25 Z"/>
            <path id="path4" fill="#7ab736" fill-rule="evenodd" stroke="none" d="M 104.68824 174.773529 C 104.68824 165.694946 97.32859 158.335297 88.25 158.335297 C 79.17141 158.335297 71.811768 165.694946 71.811768 174.773529 C 71.811768 183.852112 79.17141 191.211761 88.25 191.211761 C 97.32859 191.211761 104.68824 183.852112 104.68824 174.773529 Z"/>
        </g>
        <g id="Group-copy-2">
            <path id="path5" fill="#f5e037" fill-rule="evenodd" stroke="none" d="M 180.25 202.5 C 180.25 183.998459 165.251541 169 146.75 169 C 128.248459 169 113.25 183.998459 113.25 202.5 C 113.25 221.001541 128.248459 236 146.75 236 C 165.251541 236 180.25 221.001541 180.25 202.5 Z"/>
            <path id="path6" fill="#7ab736" fill-rule="evenodd" stroke="none" d="M 173.944122 201.711761 C 173.944122 186.692871 161.76889 174.517639 146.75 174.517639 C 131.73111 174.517639 119.555885 186.692871 119.555885 201.711761 C 119.555885 216.730667 131.73111 228.905884 146.75 228.905884 C 161.76889 228.905884 173.944122 216.730667 173.944122 201.711761 Z"/>
        </g>
        <g id="Group-copy-3">
            <path id="path7" fill="#f5e037" fill-rule="evenodd" stroke="none" d="M 269 176.875 C 269 163.136902 257.863098 152 244.125 152 C 230.386917 152 219.25 163.136902 219.25 176.875 C 219.25 190.613083 230.386917 201.75 244.125 201.75 C 257.863098 201.75 269 190.613083 269 176.875 Z"/>
            <path id="path8" fill="#7ab736" fill-rule="evenodd" stroke="none" d="M 264.317657 176.289703 C 264.317657 165.137604 255.277084 156.097046 244.125 156.097046 C 232.972916 156.097046 223.932358 165.137604 223.932358 176.289703 C 223.932358 187.441803 232.972916 196.482346 244.125 196.482346 C 255.277084 196.482346 264.317657 187.441803 264.317657 176.289703 Z"/>
        </g>
        <g id="Group-copy-6">
            <path id="path9" fill="#f5e037" fill-rule="evenodd" stroke="none" d="M 345.625 221.5 C 345.625 204.103027 331.521973 190 314.125 190 C 296.728027 190 282.625 204.103027 282.625 221.5 C 282.625 238.896973 296.728027 253 314.125 253 C 331.521973 253 345.625 238.896973 345.625 221.5 Z"/>
            <path id="path10" fill="#7ab736" fill-rule="evenodd" stroke="none" d="M 339.695587 220.75882 C 339.695587 206.636581 328.247253 195.188232 314.125 195.188232 C 300.002747 195.188232 288.554413 206.636581 288.554413 220.75882 C 288.554413 234.881073 300.002747 246.329407 314.125 246.329407 C 328.247253 246.329407 339.695587 234.881073 339.695587 220.75882 Z"/>
        </g>
        <g id="Group-copy-4">
            <path id="path11" fill="#f5e037" fill-rule="evenodd" stroke="none" d="M 287 84.875 C 287 73.346069 277.653931 64 266.125 64 C 254.596054 64 245.25 73.346069 245.25 84.875 C 245.25 96.403931 254.596054 105.75 266.125 105.75 C 277.653931 105.75 287 96.403931 287 84.875 Z"/>
            <path id="path12" fill="#7ab736" fill-rule="evenodd" stroke="none" d="M 283.070587 84.38382 C 283.070587 75.025024 275.483795 67.438232 266.125 67.438232 C 256.766205 67.438232 249.179413 75.025024 249.179413 84.38382 C 249.179413 93.742615 256.766205 101.329407 266.125 101.329407 C 275.483795 101.329407 283.070587 93.742615 283.070587 84.38382 Z"/>
        </g>
        <g id="Group-copy-5">
            <path id="path13" fill="#f5e037" fill-rule="evenodd" stroke="none" d="M 335.125 132 C 335.125 113.222321 319.902679 98 301.125 98 C 282.347321 98 267.125 113.222321 267.125 132 C 267.125 150.777679 282.347321 166 301.125 166 C 319.902679 166 335.125 150.777679 335.125 132 Z"/>
            <path id="path14" fill="#7ab736" fill-rule="evenodd" stroke="none" d="M 328.725006 131.200012 C 328.725006 115.95694 316.368073 103.600006 301.125 103.600006 C 285.881927 103.600006 273.524994 115.95694 273.524994 131.200012 C 273.524994 146.443054 285.881927 158.799988 301.125 158.799988 C 316.368073 158.799988 328.725006 146.443054 328.725006 131.200012 Z"/>
        </g>
    </g>
</svg>
